# xmcd
#
# Track frame offsets:
#	150
#	27137
#	51518
#	72998
#	96404
#	122897
#	143292
#	166051
#	188953
#	206644
#
# Disc length: 2980 seconds
#
# Revision: 3
# Processed by: cddbd v1.5.2PL0 Copyright (c) Steve Scherf et al.
# Submitted via: audiograbber 1.83.01
#
DISCID=8d0ba20a
DTITLE=Lewis Taylor - Lewis II
DYEAR=2000
DGENRE=Soul Pop
TTITLE0=Party
TTITLE1=My Aching Heart
TTITLE2=You Make Me Wanna
TTITLE3=The Way You Done Me
TTITLE4=Satisfied
TTITLE5=Never Be My Woman
TTITLE6=I'm On The Floor
TTITLE7=Lewis II
TTITLE8=Into You
TTITLE9=Blue Eyes
EXTD=
EXTT0=
EXTT1=
EXTT2=
EXTT3=
EXTT4=
EXTT5=
EXTT6=
EXTT7=
EXTT8=
EXTT9=
PLAYORDER=
